<svg xmlns="http://www.w3.org/2000/svg" xmlns:xlink="http://www.w3.org/1999/xlink" width="40" zoomAndPan="magnify" viewBox="0 0 30 30.000001" height="40" preserveAspectRatio="xMidYMid meet" version="1.0"><defs><clipPath id="c58fa5669c"><path d="M 3.335938 2.253906 L 26.5625 2.253906 L 26.5625 26.933594 L 3.335938 26.933594 Z M 3.335938 2.253906 " clip-rule="nonzero"/></clipPath></defs><path fill="#9f7247" d="M 14.949219 8.363281 C 12.386719 8.363281 10.304688 10.570312 10.304688 13.296875 C 10.304688 16.019531 12.386719 18.226562 14.949219 18.226562 C 17.515625 18.226562 19.597656 16.019531 19.597656 13.296875 C 19.597656 10.570312 17.515625 8.363281 14.949219 8.363281 " fill-opacity="1" fill-rule="nonzero"/><g clip-path="url(#c58fa5669c)"><path fill="#9f7247" d="M 22.664062 23.101562 C 21.636719 20.566406 19.476562 18.976562 14.945312 18.976562 C 10.414062 18.976562 8.257812 20.5625 7.226562 23.09375 C 5.128906 20.945312 3.824219 17.929688 3.824219 14.59375 C 3.824219 8.074219 8.804688 2.785156 14.949219 2.785156 C 21.09375 2.785156 26.078125 8.074219 26.078125 14.59375 C 26.078125 17.9375 24.769531 20.953125 22.664062 23.101562 Z M 14.949219 2.269531 C 8.535156 2.269531 3.335938 7.785156 3.335938 14.59375 C 3.335938 18.15625 4.757812 21.363281 7.035156 23.613281 C 9.109375 25.664062 11.890625 26.917969 14.949219 26.917969 C 18.003906 26.917969 20.785156 25.667969 22.855469 23.621094 C 25.136719 21.371094 26.5625 18.160156 26.5625 14.59375 C 26.5625 7.785156 21.363281 2.269531 14.949219 2.269531 " fill-opacity="1" fill-rule="nonzero"/></g></svg>